<!--?xml version="1.0" encoding="us-ascii" standalone="no"?--><svg xmlns="http://www.w3.org/2000/svg" xmlns:xlink="http://www.w3.org/1999/xlink" contentstyletype="text/css" height="1112px" preserveAspectRatio="none" style="width:434px;height:1112px;background:#FFFFFF;" version="1.1" viewBox="0 0 434 1112" width="434px" zoomAndPan="magnify"><defs></defs><g><!--cluster twitter--><g id="cluster_twitter"><rect fill="none" height="1099" rx="2.5" ry="2.5" style="stroke:#181818;stroke-width:1.0;" width="217.55" x="211" y="7"></rect><text fill="#000000" font-family="sans-serif" font-size="14" font-weight="bold" lengthAdjust="spacing" textLength="57" x="291.275" y="21.9951">Twitter</text></g><g id="elem_Tweet"><ellipse cx="319.7831" cy="313.0013" fill="#F1F1F1" rx="42.1531" ry="14.6013" style="stroke:#181818;stroke-width:0.5;"></ellipse><text fill="#000000" font-family="sans-serif" font-size="14" lengthAdjust="spacing" textLength="43" x="295.2831" y="316.7489">Tweet</text></g><g id="elem_Follow"><ellipse cx="319.7831" cy="377.0013" fill="#F1F1F1" rx="42.1531" ry="14.6013" style="stroke:#181818;stroke-width:0.5;"></ellipse><text fill="#000000" font-family="sans-serif" font-size="14" lengthAdjust="spacing" textLength="43" x="295.2831" y="380.7489">Follow</text></g><g id="elem_Unfollow"><ellipse cx="319.7772" cy="57.0015" fill="#F1F1F1" rx="53.3472" ry="14.7215" style="stroke:#181818;stroke-width:0.5;"></ellipse><text fill="#000000" font-family="sans-serif" font-size="14" lengthAdjust="spacing" textLength="58" x="287.7772" y="60.749">Unfollow</text></g><g id="elem_Like"><ellipse cx="319.7772" cy="121.0036" fill="#F1F1F1" rx="30.5772" ry="14.5236" style="stroke:#181818;stroke-width:0.5;"></ellipse><text fill="#000000" font-family="sans-serif" font-size="14" lengthAdjust="spacing" textLength="27" x="306.2772" y="123.8503">Like</text></g><g id="elem_Reply"><ellipse cx="319.7834" cy="184.9956" fill="#F1F1F1" rx="38.4534" ry="14.5556" style="stroke:#181818;stroke-width:0.5;"></ellipse><text fill="#000000" font-family="sans-serif" font-size="14" lengthAdjust="spacing" textLength="38" x="298.9203" y="188.4495">Reply</text></g><g id="elem_Retweet"><ellipse cx="319.7772" cy="249.0015" fill="#F1F1F1" rx="53.3472" ry="14.7215" style="stroke:#181818;stroke-width:0.5;"></ellipse><text fill="#000000" font-family="sans-serif" font-size="14" lengthAdjust="spacing" textLength="58" x="287.7772" y="252.749">Retweet</text></g><g id="elem_Suspend User"><ellipse cx="319.7793" cy="442.9959" fill="#F1F1F1" rx="71.9293" ry="16.7859" style="stroke:#181818;stroke-width:0.5;"></ellipse><text fill="#000000" font-family="sans-serif" font-size="14" lengthAdjust="spacing" textLength="98" x="267.7793" y="446.7434">Suspend User</text></g><g id="elem_Delete Tweet"><ellipse cx="319.7834" cy="581.0027" fill="#F1F1F1" rx="70.0634" ry="16.4127" style="stroke:#181818;stroke-width:0.5;"></ellipse><text fill="#000000" font-family="sans-serif" font-size="14" lengthAdjust="spacing" textLength="93" x="270.2834" y="584.7502">Delete Tweet</text></g><g id="elem_Delete Account"><ellipse cx="319.7844" cy="511.9969" fill="#F1F1F1" rx="75.3844" ry="17.4769" style="stroke:#181818;stroke-width:0.5;"></ellipse><text fill="#000000" font-family="sans-serif" font-size="14" lengthAdjust="spacing" textLength="107" x="263.2844" y="515.7444">Delete Account</text></g><g id="elem_Get User Data"><ellipse cx="319.7829" cy="649.0006" fill="#F1F1F1" rx="71.5529" ry="16.7106" style="stroke:#181818;stroke-width:0.5;"></ellipse><text fill="#000000" font-family="sans-serif" font-size="14" lengthAdjust="spacing" textLength="97" x="268.2829" y="652.7481">Get User Data</text></g><g id="elem_Post Tweet"><ellipse cx="319.7753" cy="715.9971" fill="#F1F1F1" rx="64.7353" ry="15.3471" style="stroke:#181818;stroke-width:0.5;"></ellipse><text fill="#000000" font-family="sans-serif" font-size="14" lengthAdjust="spacing" textLength="78" x="277.7753" y="719.7446">Post Tweet</text></g><g id="elem_Read User Timeline"><ellipse cx="319.7798" cy="786" fill="#F1F1F1" rx="86.5998" ry="19.72" style="stroke:#181818;stroke-width:0.5;"></ellipse><text fill="#000000" font-family="sans-serif" font-size="14" lengthAdjust="spacing" textLength="134" x="252.7798" y="788.8466">Read User Timeline</text></g><g id="elem_Access User Data"><ellipse cx="319.7755" cy="858.9991" fill="#F1F1F1" rx="81.4455" ry="18.6891" style="stroke:#181818;stroke-width:0.5;"></ellipse><text fill="#000000" font-family="sans-serif" font-size="14" lengthAdjust="spacing" textLength="122" x="257.6409" y="862.219">Access User Data</text></g><g id="elem_Create Ad"><ellipse cx="319.783" cy="926.9971" fill="#F1F1F1" rx="60.813" ry="14.7771" style="stroke:#181818;stroke-width:0.5;"></ellipse><text fill="#000000" font-family="sans-serif" font-size="14" lengthAdjust="spacing" textLength="68" x="282.783" y="930.7447">Create Ad</text></g><g id="elem_View Ad Analytics"><ellipse cx="319.7839" cy="994.9968" fill="#F1F1F1" rx="79.7839" ry="18.3568" style="stroke:#181818;stroke-width:0.5;"></ellipse><text fill="#000000" font-family="sans-serif" font-size="14" lengthAdjust="spacing" textLength="118" x="259.0356" y="998.4013">View Ad Analytics</text></g><g id="elem_View Trending Topics"><ellipse cx="319.7771" cy="1068.9954" fill="#F1F1F1" rx="92.7771" ry="20.9554" style="stroke:#181818;stroke-width:0.5;"></ellipse><text fill="#000000" font-family="sans-serif" font-size="14" lengthAdjust="spacing" textLength="148" x="245.7771" y="1071.8421">View Trending Topics</text></g><!--entity user--><g id="elem_user"><ellipse cx="86.5" cy="187.35" fill="#F1F1F1" rx="8" ry="8" style="stroke:#181818;stroke-width:0.5;"></ellipse><path d="M86.5,195.35 L86.5,222.35 M73.5,203.35 L99.5,203.35 M86.5,222.35 L73.5,237.35 M86.5,222.35 L99.5,237.35 " fill="none" style="stroke:#181818;stroke-width:0.5;"></path><text fill="#000000" font-family="sans-serif" font-size="14" lengthAdjust="spacing" textLength="32" x="70.5" y="251.8451">User</text></g><!--entity admin--><g id="elem_admin"><ellipse cx="86.5" cy="482.35" fill="#F1F1F1" rx="8" ry="8" style="stroke:#181818;stroke-width:0.5;"></ellipse><path d="M86.5,490.35 L86.5,517.35 M73.5,498.35 L99.5,498.35 M86.5,517.35 L73.5,532.35 M86.5,517.35 L99.5,532.35 " fill="none" style="stroke:#181818;stroke-width:0.5;"></path><text fill="#000000" font-family="sans-serif" font-size="14" lengthAdjust="spacing" textLength="91" x="41" y="546.8451">Administrator</text></g><!--entity api--><g id="elem_api"><ellipse cx="86.5" cy="619.35" fill="#F1F1F1" rx="8" ry="8" style="stroke:#181818;stroke-width:0.5;"></ellipse><path d="M86.5,627.35 L86.5,654.35 M73.5,635.35 L99.5,635.35 M86.5,654.35 L73.5,669.35 M86.5,654.35 L99.5,669.35 " fill="none" style="stroke:#181818;stroke-width:0.5;"></path><text fill="#000000" font-family="sans-serif" font-size="14" lengthAdjust="spacing" textLength="72" x="50.5" y="683.8451">Twitter API</text></g><!--entity app--><g id="elem_app"><ellipse cx="86.5" cy="756.35" fill="#F1F1F1" rx="8" ry="8" style="stroke:#181818;stroke-width:0.5;"></ellipse><path d="M86.5,764.35 L86.5,791.35 M73.5,772.35 L99.5,772.35 M86.5,791.35 L73.5,806.35 M86.5,791.35 L99.5,806.35 " fill="none" style="stroke:#181818;stroke-width:0.5;"></path><text fill="#000000" font-family="sans-serif" font-size="14" lengthAdjust="spacing" textLength="161" x="6" y="820.8451">Third-party Applications</text></g><!--entity ad--><g id="elem_ad"><ellipse cx="86.5" cy="912.35" fill="#F1F1F1" rx="8" ry="8" style="stroke:#181818;stroke-width:0.5;"></ellipse><path d="M86.5,920.35 L86.5,947.35 M73.5,928.35 L99.5,928.35 M86.5,947.35 L73.5,962.35 M86.5,947.35 L99.5,962.35 " fill="none" style="stroke:#181818;stroke-width:0.5;"></path><text fill="#000000" font-family="sans-serif" font-size="14" lengthAdjust="spacing" textLength="69" x="52" y="976.8451">Advertiser</text></g><!--entity visitor--><g id="elem_visitor"><ellipse cx="86.5" cy="1039.35" fill="#F1F1F1" rx="8" ry="8" style="stroke:#181818;stroke-width:0.5;"></ellipse><path d="M86.5,1047.35 L86.5,1074.35 M73.5,1055.35 L99.5,1055.35 M86.5,1074.35 L73.5,1089.35 M86.5,1074.35 L99.5,1089.35 " fill="none" style="stroke:#181818;stroke-width:0.5;"></path><text fill="#000000" font-family="sans-serif" font-size="14" lengthAdjust="spacing" textLength="42" x="65.5" y="1103.8451">Visitor</text></g><!--link user to Tweet--><g id="link_user_Tweet"><path d="M102.98,227.14 C124.6,240.93 165.44,265.65 203,281 C229.06,291.65 259.83,299.96 283.1,305.45 " fill="none" id="user-Tweet" style="stroke:#181818;stroke-width:1.0;"></path></g><!--link user to Follow--><g id="link_user_Follow"><path d="M102.84,241.07 C122.55,270.03 159.45,318.11 203,345 C226.33,359.41 256.24,367.46 279.82,371.88 " fill="none" id="user-Follow" style="stroke:#181818;stroke-width:1.0;"></path></g><!--link user to Unfollow--><g id="link_user_Unfollow"><path d="M102.84,192.93 C122.55,163.97 159.45,115.89 203,89 C223.76,76.18 249.73,68.4 271.81,63.72 " fill="none" id="user-Unfollow" style="stroke:#181818;stroke-width:1.0;"></path></g><!--link user to Like--><g id="link_user_Like"><path d="M102.98,206.86 C124.6,193.07 165.44,168.35 203,153 C232.34,141.01 267.66,131.98 291.51,126.62 " fill="none" id="user-Like" style="stroke:#181818;stroke-width:1.0;"></path></g><!--link user to Reply--><g id="link_user_Reply"><path d="M102.67,214.9 C139.05,209.87 232.02,197 283.37,189.9 " fill="none" id="user-Reply" style="stroke:#181818;stroke-width:1.0;"></path></g><!--link user to Retweet--><g id="link_user_Retweet"><path d="M102.67,219.1 C136.34,223.76 218.47,235.12 271.22,242.42 " fill="none" id="user-Retweet" style="stroke:#181818;stroke-width:1.0;"></path></g><!--link admin to Suspend User--><g id="link_admin_Suspend User"><path d="M132.45,498.28 C153.81,491.79 179.71,483.95 203,477 C226.19,470.08 252.02,462.49 273.39,456.23 " fill="none" id="admin-Suspend User" style="stroke:#181818;stroke-width:1.0;"></path></g><!--link admin to Delete Tweet--><g id="link_admin_Delete Tweet"><path d="M132.45,525.72 C153.81,532.21 179.71,540.05 203,547 C226.59,554.04 252.91,561.78 274.49,568.09 " fill="none" id="admin-Delete Tweet" style="stroke:#181818;stroke-width:1.0;"></path></g><!--link admin to Delete Account--><g id="link_admin_Delete Account"><path d="M132.37,512 C164.02,512 207.18,512 244,512 " fill="none" id="admin-Delete Account" style="stroke:#181818;stroke-width:1.0;"></path></g><!--link api to Get User Data--><g id="link_api_Get User Data"><path d="M122.88,649 C156.03,649 206.55,649 247.98,649 " fill="none" id="api-Get User Data" style="stroke:#181818;stroke-width:1.0;"></path></g><!--link api to Post Tweet--><g id="link_api_Post Tweet"><path d="M122.86,659.5 C145.71,666.26 176.1,675.21 203,683 C227.49,690.1 254.93,697.92 276.95,704.17 " fill="none" id="api-Post Tweet" style="stroke:#181818;stroke-width:1.0;"></path></g><!--link api to Delete Tweet--><g id="link_api_Delete Tweet"><path d="M122.88,638.58 C145.74,631.85 176.13,622.9 203,615 C226.72,608.03 253.17,600.26 274.79,593.91 " fill="none" id="api-Delete Tweet" style="stroke:#181818;stroke-width:1.0;"></path></g><!--link app to Read User Timeline--><g id="link_app_Read User Timeline"><path d="M167.42,786 C188.57,786 211.49,786 232.94,786 " fill="none" id="app-Read User Timeline" style="stroke:#181818;stroke-width:1.0;"></path></g><!--link app to Post Tweet--><g id="link_app_Post Tweet"><path d="M167.24,760.09 C179.2,756.3 191.41,752.51 203,749 C227.21,741.68 254.39,733.9 276.34,727.74 " fill="none" id="app-Post Tweet" style="stroke:#181818;stroke-width:1.0;"></path></g><!--link app to Access User Data--><g id="link_app_Access User Data"><path d="M167.31,811.67 C179.27,815.48 191.45,819.36 203,823 C224.88,829.91 249.12,837.46 269.74,843.85 " fill="none" id="app-Access User Data" style="stroke:#181818;stroke-width:1.0;"></path></g><!--link ad to Create Ad--><g id="link_ad_Create Ad"><path d="M121.13,939.82 C157.59,937.45 216.45,933.64 260.47,930.78 " fill="none" id="ad-Create Ad" style="stroke:#181818;stroke-width:1.0;"></path></g><!--link ad to View Ad Analytics--><g id="link_ad_View Ad Analytics"><path d="M121.13,949.71 C157.96,958.15 217.66,971.83 261.83,981.95 " fill="none" id="ad-View Ad Analytics" style="stroke:#181818;stroke-width:1.0;"></path></g><!--link visitor to View Trending Topics--><g id="link_visitor_View Trending Topics"><path d="M107.62,1069 C134.22,1069 182.84,1069 226.73,1069 " fill="none" id="visitor-View Trending Topics" style="stroke:#181818;stroke-width:1.0;"></path></g><!--SRC=[PP7BReCm44NtVCKegtR1Hw16hIfr4JKa-v4z8QCwjcKFGQZglnSC93nsvfnXxfLjw28W3W9NLm7DWPIminagSG5sfqXX1nYXxWuJBFIDBKS9s7qcYpsPTDcm20Ke3f-3zFnGLmuwznYaXS9xmmhxj3ZE-MV2dOBm58vw4cUEF8NUXtFMLqPR6Nf49orZZTyCKdl8StWf6o9vdPDtPunh5kXaBrlunJ-q0D_aJRiYCgrF5vBWiOwUh8R-9fTcJuQ4eDp-Cvf2ALVRmNbEveCaRO8z2ix5mKMPhHhf9iBxiIaEZQ3a6ncsDBVhNGFjsb2CgtITr5iWxFlg6JipDHs1mg9fXLNitVXapu4oT7V3jeBI-JJpzmy0]--></g></svg>