<!--?xml version="1.0" encoding="us-ascii" standalone="no"?--><svg xmlns="http://www.w3.org/2000/svg" xmlns:xlink="http://www.w3.org/1999/xlink" contentstyletype="text/css" height="292px" preserveAspectRatio="none" style="width:260px;height:292px;background:#FFFFFF;" version="1.1" viewBox="0 0 260 292" width="260px" zoomAndPan="magnify"><defs></defs><g><!--cluster Twitter--><g id="cluster_Twitter"><rect fill="none" height="279" rx="2.5" ry="2.5" style="stroke:#181818;stroke-width:1.0;" width="170.66" x="7" y="7"></rect><text fill="#000000" font-family="sans-serif" font-size="14" font-weight="bold" lengthAdjust="spacing" textLength="57" x="63.83" y="21.9951">Twitter</text></g><g id="elem_UC1"><ellipse cx="92.3331" cy="56.9985" fill="#F1F1F1" rx="37.7231" ry="14.5485" style="stroke:#181818;stroke-width:0.5;"></ellipse><text fill="#000000" font-family="sans-serif" font-size="14" lengthAdjust="spacing" textLength="37" x="72.2216" y="60.3812">Login</text></g><g id="elem_UC2"><ellipse cx="92.3325" cy="121.9985" fill="#F1F1F1" rx="63.3925" ry="15.0785" style="stroke:#181818;stroke-width:0.5;"></ellipse><text fill="#000000" font-family="sans-serif" font-size="14" lengthAdjust="spacing" textLength="74" x="52.3325" y="125.7461">Post tweet</text></g><g id="elem_UC3"><ellipse cx="92.3253" cy="186.9971" fill="#F1F1F1" rx="64.7353" ry="15.3471" style="stroke:#181818;stroke-width:0.5;"></ellipse><text fill="#000000" font-family="sans-serif" font-size="14" lengthAdjust="spacing" textLength="78" x="50.3253" y="190.7446">Follow user</text></g><g id="elem_UC4"><ellipse cx="92.3288" cy="253.9958" fill="#F1F1F1" rx="69.3288" ry="16.2658" style="stroke:#181818;stroke-width:0.5;"></ellipse><text fill="#000000" font-family="sans-serif" font-size="14" lengthAdjust="spacing" textLength="91" x="43.8288" y="257.7433">Search tweet</text></g><!--entity U--><g id="elem_U"><ellipse cx="237.66" cy="125.35" fill="#F1F1F1" rx="8" ry="8" style="stroke:#181818;stroke-width:0.5;"></ellipse><path d="M237.66,133.35 L237.66,160.35 M224.66,141.35 L250.66,141.35 M237.66,160.35 L224.66,175.35 M237.66,160.35 L250.66,175.35 " fill="none" style="stroke:#181818;stroke-width:0.5;"></path><text fill="#000000" font-family="sans-serif" font-size="14" lengthAdjust="spacing" textLength="32" x="221.66" y="189.8451">User</text></g><!--link UC1 to U--><g id="link_UC1_U"><path d="M126.27,63.49 C144.94,68.33 168.03,76.33 185.66,89 C200.12,99.4 212.46,115.04 221.37,128.49 " fill="none" id="UC1-U" style="stroke:#181818;stroke-width:1.0;"></path></g><!--link UC2 to U--><g id="link_UC2_U"><path d="M139.07,132.53 C167.42,139.06 202.02,147.02 221.47,151.5 " fill="none" id="UC2-U" style="stroke:#181818;stroke-width:1.0;"></path></g><!--link UC3 to U--><g id="link_UC3_U"><path d="M140.66,176.43 C168.54,170.21 202.01,162.74 221.16,158.46 " fill="none" id="UC3-U" style="stroke:#181818;stroke-width:1.0;"></path></g><!--link UC4 to U--><g id="link_UC4_U"><path d="M140.91,242.07 C156.1,236.84 172.4,229.65 185.66,220 C199.92,209.62 212.25,194.21 221.21,181 " fill="none" id="UC4-U" style="stroke:#181818;stroke-width:1.0;"></path></g><!--SRC=[LOr12i8m54JtFSNGbIwwiEqD15Sk1Cq1GlocWT0FFxza8TxTj5I8opTlXedqKYX3WfyKpo3aDF3SMASiC8a4Di4qQsvd7mdj8mTLaXRl1bWIEPjAUcKVvdOhdq-rk74g3vb8TzlNzi8nSbvPTZtK-avMtFGt7uil5-Ww7CnnWxw6eORn1vyl]--></g></svg>