<!--?xml version="1.0" encoding="us-ascii" standalone="no"?--><svg xmlns="http://www.w3.org/2000/svg" xmlns:xlink="http://www.w3.org/1999/xlink" contentstyletype="text/css" height="371px" preserveAspectRatio="none" style="width:2788px;height:371px;background:#FFFFFF;" version="1.1" viewBox="0 0 2788 371" width="2788px" zoomAndPan="magnify"><defs></defs><g><!--cluster TwitterApp--><g id="cluster_TwitterApp"><path d="M8.5,70.43 L97.5,70.43 A3.75,3.75 0 0 1 100,72.93 L107,92.7269 L2778.5,92.7269 A2.5,2.5 0 0 1 2781,95.2269 L2781,362.49 A2.5,2.5 0 0 1 2778.5,364.99 L8.5,364.99 A2.5,2.5 0 0 1 6,362.49 L6,72.93 A2.5,2.5 0 0 1 8.5,70.43 " fill="none" style="stroke:#000000;stroke-width:1.5;"></path><line style="stroke:#000000;stroke-width:1.5;" x1="6" x2="107" y1="92.7269" y2="92.7269"></line><text fill="#000000" font-family="sans-serif" font-size="14" font-weight="bold" lengthAdjust="spacing" textLength="88" x="10" y="85.4251">TwitterApp</text></g><!--class Twitter--><g id="elem_Twitter"><rect codeline="2" fill="#F1F1F1" height="162.0781" id="Twitter" rx="2.5" ry="2.5" style="stroke:#181818;stroke-width:0.5;" width="340" x="433" y="146.17"></rect><ellipse cx="575.25" cy="162.17" fill="#ADD1B2" rx="11" ry="11" style="stroke:#181818;stroke-width:1.0;"></ellipse><path d="M578.2188,167.8106 Q577.6406,168.1075 577,168.2481 Q576.3594,168.4044 575.6563,168.4044 Q573.1563,168.4044 571.8281,166.7638 Q570.5156,165.1075 570.5156,161.9825 Q570.5156,158.8575 571.8281,157.2013 Q573.1563,155.545 575.6563,155.545 Q576.3594,155.545 577,155.7013 Q577.6563,155.8575 578.2188,156.1544 L578.2188,158.8731 Q577.5938,158.295 577,158.0294 Q576.4063,157.7481 575.7813,157.7481 Q574.4375,157.7481 573.75,158.8263 Q573.0625,159.8888 573.0625,161.9825 Q573.0625,164.0763 573.75,165.1544 Q574.4375,166.2169 575.7813,166.2169 Q576.4063,166.2169 577,165.9513 Q577.5938,165.67 578.2188,165.0919 L578.2188,167.8106 Z " fill="#000000"></path><text fill="#000000" font-family="sans-serif" font-size="14" lengthAdjust="spacing" textLength="47" x="595.75" y="167.0167">Twitter</text><line style="stroke:#181818;stroke-width:0.5;" x1="434" x2="772" y1="178.17" y2="178.17"></line><rect fill="none" height="6" style="stroke:#C82930;stroke-width:1.0;" width="6" x="441" y="188.8184"></rect><text fill="#000000" font-family="sans-serif" font-size="14" lengthAdjust="spacing" textLength="146" x="453" y="195.1651">tweets: List&lt;Tweet&gt;</text><rect fill="none" height="6" style="stroke:#C82930;stroke-width:1.0;" width="6" x="441" y="205.1153"></rect><text fill="#000000" font-family="sans-serif" font-size="14" lengthAdjust="spacing" textLength="127" x="453" y="211.462">users: List&lt;User&gt;</text><line style="stroke:#181818;stroke-width:0.5;" x1="434" x2="772" y1="218.7638" y2="218.7638"></line><ellipse cx="444" cy="232.4122" fill="#84BE84" rx="3" ry="3" style="stroke:#038048;stroke-width:1.0;"></ellipse><text fill="#000000" font-family="sans-serif" font-size="14" lengthAdjust="spacing" textLength="207" x="453" y="235.7589">addTweet(tweet: Tweet): void</text><ellipse cx="444" cy="248.7091" fill="#84BE84" rx="3" ry="3" style="stroke:#038048;stroke-width:1.0;"></ellipse><text fill="#000000" font-family="sans-serif" font-size="14" lengthAdjust="spacing" textLength="225" x="453" y="252.0557">deleteTweet(tweet: Tweet): void</text><ellipse cx="444" cy="265.0059" fill="#84BE84" rx="3" ry="3" style="stroke:#038048;stroke-width:1.0;"></ellipse><text fill="#000000" font-family="sans-serif" font-size="14" lengthAdjust="spacing" textLength="314" x="453" y="268.3526">searchTweets(keyword: String): List&lt;Tweet&gt;</text><ellipse cx="444" cy="281.3028" fill="#84BE84" rx="3" ry="3" style="stroke:#038048;stroke-width:1.0;"></ellipse><text fill="#000000" font-family="sans-serif" font-size="14" lengthAdjust="spacing" textLength="190" x="453" y="284.6495">followUser(user: User): void</text><ellipse cx="444" cy="297.5997" fill="#84BE84" rx="3" ry="3" style="stroke:#038048;stroke-width:1.0;"></ellipse><text fill="#000000" font-family="sans-serif" font-size="14" lengthAdjust="spacing" textLength="208" x="453" y="300.9464">unfollowUser(user: User): void</text></g><!--class User--><g id="elem_User"><rect codeline="12" fill="#F1F1F1" height="243.5625" id="User" rx="2.5" ry="2.5" style="stroke:#181818;stroke-width:0.5;" width="477" x="807.5" y="105.43"></rect><ellipse cx="1025.75" cy="121.43" fill="#ADD1B2" rx="11" ry="11" style="stroke:#181818;stroke-width:1.0;"></ellipse><path d="M1028.7188,127.0706 Q1028.1406,127.3675 1027.5,127.5081 Q1026.8594,127.6644 1026.1563,127.6644 Q1023.6563,127.6644 1022.3281,126.0238 Q1021.0156,124.3675 1021.0156,121.2425 Q1021.0156,118.1175 1022.3281,116.4613 Q1023.6563,114.805 1026.1563,114.805 Q1026.8594,114.805 1027.5,114.9613 Q1028.1563,115.1175 1028.7188,115.4144 L1028.7188,118.1331 Q1028.0938,117.555 1027.5,117.2894 Q1026.9063,117.0081 1026.2813,117.0081 Q1024.9375,117.0081 1024.25,118.0863 Q1023.5625,119.1488 1023.5625,121.2425 Q1023.5625,123.3363 1024.25,124.4144 Q1024.9375,125.4769 1026.2813,125.4769 Q1026.9063,125.4769 1027.5,125.2113 Q1028.0938,124.93 1028.7188,124.3519 L1028.7188,127.0706 Z " fill="#000000"></path><text fill="#000000" font-family="sans-serif" font-size="14" lengthAdjust="spacing" textLength="32" x="1046.25" y="126.2767">User</text><line style="stroke:#181818;stroke-width:0.5;" x1="808.5" x2="1283.5" y1="137.43" y2="137.43"></line><rect fill="none" height="6" style="stroke:#C82930;stroke-width:1.0;" width="6" x="815.5" y="148.0784"></rect><text fill="#000000" font-family="sans-serif" font-size="14" lengthAdjust="spacing" textLength="119" x="827.5" y="154.4251">username: String</text><rect fill="none" height="6" style="stroke:#C82930;stroke-width:1.0;" width="6" x="815.5" y="164.3753"></rect><text fill="#000000" font-family="sans-serif" font-size="14" lengthAdjust="spacing" textLength="116" x="827.5" y="170.722">password: String</text><rect fill="none" height="6" style="stroke:#C82930;stroke-width:1.0;" width="6" x="815.5" y="180.6722"></rect><text fill="#000000" font-family="sans-serif" font-size="14" lengthAdjust="spacing" textLength="85" x="827.5" y="187.0189">email: String</text><rect fill="none" height="6" style="stroke:#C82930;stroke-width:1.0;" width="6" x="815.5" y="196.9691"></rect><text fill="#000000" font-family="sans-serif" font-size="14" lengthAdjust="spacing" textLength="146" x="827.5" y="203.3157">tweets: List&lt;Tweet&gt;</text><rect fill="none" height="6" style="stroke:#C82930;stroke-width:1.0;" width="6" x="815.5" y="213.2659"></rect><text fill="#000000" font-family="sans-serif" font-size="14" lengthAdjust="spacing" textLength="149" x="827.5" y="219.6126">followers: List&lt;User&gt;</text><rect fill="none" height="6" style="stroke:#C82930;stroke-width:1.0;" width="6" x="815.5" y="229.5628"></rect><text fill="#000000" font-family="sans-serif" font-size="14" lengthAdjust="spacing" textLength="148" x="827.5" y="235.9095">following: List&lt;User&gt;</text><line style="stroke:#181818;stroke-width:0.5;" x1="808.5" x2="1283.5" y1="243.2113" y2="243.2113"></line><ellipse cx="818.5" cy="256.8597" fill="#84BE84" rx="3" ry="3" style="stroke:#038048;stroke-width:1.0;"></ellipse><text fill="#000000" font-family="sans-serif" font-size="14" lengthAdjust="spacing" textLength="451" x="827.5" y="260.2064">editProfile(username: String, password: String, email: String): void</text><ellipse cx="818.5" cy="273.1566" fill="#84BE84" rx="3" ry="3" style="stroke:#038048;stroke-width:1.0;"></ellipse><text fill="#000000" font-family="sans-serif" font-size="14" lengthAdjust="spacing" textLength="225" x="827.5" y="276.5032">createTweet(tweet: Tweet): void</text><ellipse cx="818.5" cy="289.4534" fill="#84BE84" rx="3" ry="3" style="stroke:#038048;stroke-width:1.0;"></ellipse><text fill="#000000" font-family="sans-serif" font-size="14" lengthAdjust="spacing" textLength="225" x="827.5" y="292.8001">deleteTweet(tweet: Tweet): void</text><ellipse cx="818.5" cy="305.7503" fill="#84BE84" rx="3" ry="3" style="stroke:#038048;stroke-width:1.0;"></ellipse><text fill="#000000" font-family="sans-serif" font-size="14" lengthAdjust="spacing" textLength="183" x="827.5" y="309.097">getTweets(): List&lt;Tweet&gt;</text><ellipse cx="818.5" cy="322.0472" fill="#84BE84" rx="3" ry="3" style="stroke:#038048;stroke-width:1.0;"></ellipse><text fill="#000000" font-family="sans-serif" font-size="14" lengthAdjust="spacing" textLength="186" x="827.5" y="325.3939">getFollowers(): List&lt;User&gt;</text><ellipse cx="818.5" cy="338.3441" fill="#84BE84" rx="3" ry="3" style="stroke:#038048;stroke-width:1.0;"></ellipse><text fill="#000000" font-family="sans-serif" font-size="14" lengthAdjust="spacing" textLength="185" x="827.5" y="341.6907">getFollowing(): List&lt;User&gt;</text></g><!--class Tweet--><g id="elem_Tweet"><rect codeline="27" fill="#F1F1F1" height="162.0781" id="Tweet" rx="2.5" ry="2.5" style="stroke:#181818;stroke-width:0.5;" width="138" x="2252" y="146.17"></rect><ellipse cx="2295.35" cy="162.17" fill="#ADD1B2" rx="11" ry="11" style="stroke:#181818;stroke-width:1.0;"></ellipse><path d="M2298.3188,167.8106 Q2297.7406,168.1075 2297.1,168.2481 Q2296.4594,168.4044 2295.7563,168.4044 Q2293.2563,168.4044 2291.9281,166.7638 Q2290.6156,165.1075 2290.6156,161.9825 Q2290.6156,158.8575 2291.9281,157.2013 Q2293.2563,155.545 2295.7563,155.545 Q2296.4594,155.545 2297.1,155.7013 Q2297.7563,155.8575 2298.3188,156.1544 L2298.3188,158.8731 Q2297.6938,158.295 2297.1,158.0294 Q2296.5063,157.7481 2295.8813,157.7481 Q2294.5375,157.7481 2293.85,158.8263 Q2293.1625,159.8888 2293.1625,161.9825 Q2293.1625,164.0763 2293.85,165.1544 Q2294.5375,166.2169 2295.8813,166.2169 Q2296.5063,166.2169 2297.1,165.9513 Q2297.6938,165.67 2298.3188,165.0919 L2298.3188,167.8106 Z " fill="#000000"></path><text fill="#000000" font-family="sans-serif" font-size="14" lengthAdjust="spacing" textLength="43" x="2315.65" y="167.0167">Tweet</text><line style="stroke:#181818;stroke-width:0.5;" x1="2253" x2="2389" y1="178.17" y2="178.17"></line><rect fill="none" height="6" style="stroke:#C82930;stroke-width:1.0;" width="6" x="2260" y="188.8184"></rect><text fill="#000000" font-family="sans-serif" font-size="14" lengthAdjust="spacing" textLength="38" x="2272" y="195.1651">id: int</text><rect fill="none" height="6" style="stroke:#C82930;stroke-width:1.0;" width="6" x="2260" y="205.1153"></rect><text fill="#000000" font-family="sans-serif" font-size="14" lengthAdjust="spacing" textLength="75" x="2272" y="211.462">text: String</text><rect fill="none" height="6" style="stroke:#C82930;stroke-width:1.0;" width="6" x="2260" y="221.4122"></rect><text fill="#000000" font-family="sans-serif" font-size="14" lengthAdjust="spacing" textLength="73" x="2272" y="227.7589">date: Date</text><rect fill="none" height="6" style="stroke:#C82930;stroke-width:1.0;" width="6" x="2260" y="237.7091"></rect><text fill="#000000" font-family="sans-serif" font-size="14" lengthAdjust="spacing" textLength="72" x="2272" y="244.0557">user: User</text><line style="stroke:#181818;stroke-width:0.5;" x1="2253" x2="2389" y1="251.3575" y2="251.3575"></line><ellipse cx="2263" cy="265.0059" fill="#84BE84" rx="3" ry="3" style="stroke:#038048;stroke-width:1.0;"></ellipse><text fill="#000000" font-family="sans-serif" font-size="14" lengthAdjust="spacing" textLength="112" x="2272" y="268.3526">getText(): String</text><ellipse cx="2263" cy="281.3028" fill="#84BE84" rx="3" ry="3" style="stroke:#038048;stroke-width:1.0;"></ellipse><text fill="#000000" font-family="sans-serif" font-size="14" lengthAdjust="spacing" textLength="108" x="2272" y="284.6495">getDate(): Date</text><ellipse cx="2263" cy="297.5997" fill="#84BE84" rx="3" ry="3" style="stroke:#038048;stroke-width:1.0;"></ellipse><text fill="#000000" font-family="sans-serif" font-size="14" lengthAdjust="spacing" textLength="106" x="2272" y="300.9464">getUser(): User</text></g><!--class UserService--><g id="elem_UserService"><rect codeline="37" fill="#F1F1F1" height="129.4844" id="UserService" rx="2.5" ry="2.5" style="stroke:#181818;stroke-width:0.5;" width="498" x="1719" y="162.47"></rect><ellipse cx="1922.75" cy="178.47" fill="#ADD1B2" rx="11" ry="11" style="stroke:#181818;stroke-width:1.0;"></ellipse><path d="M1925.7188,184.1106 Q1925.1406,184.4075 1924.5,184.5481 Q1923.8594,184.7044 1923.1563,184.7044 Q1920.6563,184.7044 1919.3281,183.0638 Q1918.0156,181.4075 1918.0156,178.2825 Q1918.0156,175.1575 1919.3281,173.5013 Q1920.6563,171.845 1923.1563,171.845 Q1923.8594,171.845 1924.5,172.0013 Q1925.1563,172.1575 1925.7188,172.4544 L1925.7188,175.1731 Q1925.0938,174.595 1924.5,174.3294 Q1923.9063,174.0481 1923.2813,174.0481 Q1921.9375,174.0481 1921.25,175.1263 Q1920.5625,176.1888 1920.5625,178.2825 Q1920.5625,180.3763 1921.25,181.4544 Q1921.9375,182.5169 1923.2813,182.5169 Q1923.9063,182.5169 1924.5,182.2513 Q1925.0938,181.97 1925.7188,181.3919 L1925.7188,184.1106 Z " fill="#000000"></path><text fill="#000000" font-family="sans-serif" font-size="14" lengthAdjust="spacing" textLength="82" x="1943.25" y="183.3167">UserService</text><line style="stroke:#181818;stroke-width:0.5;" x1="1720" x2="2216" y1="194.47" y2="194.47"></line><line style="stroke:#181818;stroke-width:0.5;" x1="1720" x2="2216" y1="202.47" y2="202.47"></line><ellipse cx="1730" cy="216.1184" fill="#84BE84" rx="3" ry="3" style="stroke:#038048;stroke-width:1.0;"></ellipse><text fill="#000000" font-family="sans-serif" font-size="14" lengthAdjust="spacing" textLength="472" x="1739" y="219.4651">registerUser(username: String, password: String, email: String): User</text><ellipse cx="1730" cy="232.4153" fill="#84BE84" rx="3" ry="3" style="stroke:#038048;stroke-width:1.0;"></ellipse><text fill="#000000" font-family="sans-serif" font-size="14" lengthAdjust="spacing" textLength="383" x="1739" y="235.762">loginUser(username: String, password: String): boolean</text><ellipse cx="1730" cy="248.7122" fill="#84BE84" rx="3" ry="3" style="stroke:#038048;stroke-width:1.0;"></ellipse><text fill="#000000" font-family="sans-serif" font-size="14" lengthAdjust="spacing" textLength="123" x="1739" y="252.0589">logoutUser(): void</text><ellipse cx="1730" cy="265.0091" fill="#84BE84" rx="3" ry="3" style="stroke:#038048;stroke-width:1.0;"></ellipse><text fill="#000000" font-family="sans-serif" font-size="14" lengthAdjust="spacing" textLength="173" x="1739" y="268.3557">getUserById(id: int): User</text><ellipse cx="1730" cy="281.3059" fill="#84BE84" rx="3" ry="3" style="stroke:#038048;stroke-width:1.0;"></ellipse><text fill="#000000" font-family="sans-serif" font-size="14" lengthAdjust="spacing" textLength="313" x="1739" y="284.6526">getUserByUsername(username: String): User</text></g><!--class TweetService--><g id="elem_TweetService"><rect codeline="45" fill="#F1F1F1" height="113.1875" id="TweetService" rx="2.5" ry="2.5" style="stroke:#181818;stroke-width:0.5;" width="340" x="2425" y="170.61"></rect><ellipse cx="2544.25" cy="186.61" fill="#ADD1B2" rx="11" ry="11" style="stroke:#181818;stroke-width:1.0;"></ellipse><path d="M2547.2188,192.2506 Q2546.6406,192.5475 2546,192.6881 Q2545.3594,192.8444 2544.6563,192.8444 Q2542.1563,192.8444 2540.8281,191.2038 Q2539.5156,189.5475 2539.5156,186.4225 Q2539.5156,183.2975 2540.8281,181.6413 Q2542.1563,179.985 2544.6563,179.985 Q2545.3594,179.985 2546,180.1413 Q2546.6563,180.2975 2547.2188,180.5944 L2547.2188,183.3131 Q2546.5938,182.735 2546,182.4694 Q2545.4063,182.1881 2544.7813,182.1881 Q2543.4375,182.1881 2542.75,183.2663 Q2542.0625,184.3288 2542.0625,186.4225 Q2542.0625,188.5163 2542.75,189.5944 Q2543.4375,190.6569 2544.7813,190.6569 Q2545.4063,190.6569 2546,190.3913 Q2546.5938,190.11 2547.2188,189.5319 L2547.2188,192.2506 Z " fill="#000000"></path><text fill="#000000" font-family="sans-serif" font-size="14" lengthAdjust="spacing" textLength="93" x="2564.75" y="191.4567">TweetService</text><line style="stroke:#181818;stroke-width:0.5;" x1="2426" x2="2764" y1="202.61" y2="202.61"></line><line style="stroke:#181818;stroke-width:0.5;" x1="2426" x2="2764" y1="210.61" y2="210.61"></line><ellipse cx="2436" cy="224.2584" fill="#84BE84" rx="3" ry="3" style="stroke:#038048;stroke-width:1.0;"></ellipse><text fill="#000000" font-family="sans-serif" font-size="14" lengthAdjust="spacing" textLength="304" x="2445" y="227.6051">createTweet(text: String, user: User): Tweet</text><ellipse cx="2436" cy="240.5553" fill="#84BE84" rx="3" ry="3" style="stroke:#038048;stroke-width:1.0;"></ellipse><text fill="#000000" font-family="sans-serif" font-size="14" lengthAdjust="spacing" textLength="225" x="2445" y="243.902">deleteTweet(tweet: Tweet): void</text><ellipse cx="2436" cy="256.8522" fill="#84BE84" rx="3" ry="3" style="stroke:#038048;stroke-width:1.0;"></ellipse><text fill="#000000" font-family="sans-serif" font-size="14" lengthAdjust="spacing" textLength="195" x="2445" y="260.1989">getTweetById(id: int): Tweet</text><ellipse cx="2436" cy="273.1491" fill="#84BE84" rx="3" ry="3" style="stroke:#038048;stroke-width:1.0;"></ellipse><text fill="#000000" font-family="sans-serif" font-size="14" lengthAdjust="spacing" textLength="314" x="2445" y="276.4957">searchTweets(keyword: String): List&lt;Tweet&gt;</text></g><!--class FollowService--><g id="elem_FollowService"><rect codeline="52" fill="#F1F1F1" height="113.1875" id="FollowService" rx="2.5" ry="2.5" style="stroke:#181818;stroke-width:0.5;" width="365" x="1319.5" y="170.61"></rect><ellipse cx="1451.25" cy="186.61" fill="#ADD1B2" rx="11" ry="11" style="stroke:#181818;stroke-width:1.0;"></ellipse><path d="M1454.2188,192.2506 Q1453.6406,192.5475 1453,192.6881 Q1452.3594,192.8444 1451.6563,192.8444 Q1449.1563,192.8444 1447.8281,191.2038 Q1446.5156,189.5475 1446.5156,186.4225 Q1446.5156,183.2975 1447.8281,181.6413 Q1449.1563,179.985 1451.6563,179.985 Q1452.3594,179.985 1453,180.1413 Q1453.6563,180.2975 1454.2188,180.5944 L1454.2188,183.3131 Q1453.5938,182.735 1453,182.4694 Q1452.4063,182.1881 1451.7813,182.1881 Q1450.4375,182.1881 1449.75,183.2663 Q1449.0625,184.3288 1449.0625,186.4225 Q1449.0625,188.5163 1449.75,189.5944 Q1450.4375,190.6569 1451.7813,190.6569 Q1452.4063,190.6569 1453,190.3913 Q1453.5938,190.11 1454.2188,189.5319 L1454.2188,192.2506 Z " fill="#000000"></path><text fill="#000000" font-family="sans-serif" font-size="14" lengthAdjust="spacing" textLength="93" x="1471.75" y="191.4567">FollowService</text><line style="stroke:#181818;stroke-width:0.5;" x1="1320.5" x2="1683.5" y1="202.61" y2="202.61"></line><line style="stroke:#181818;stroke-width:0.5;" x1="1320.5" x2="1683.5" y1="210.61" y2="210.61"></line><ellipse cx="1330.5" cy="224.2584" fill="#84BE84" rx="3" ry="3" style="stroke:#038048;stroke-width:1.0;"></ellipse><text fill="#000000" font-family="sans-serif" font-size="14" lengthAdjust="spacing" textLength="321" x="1339.5" y="227.6051">followUser(follower: User, following: User): void</text><ellipse cx="1330.5" cy="240.5553" fill="#84BE84" rx="3" ry="3" style="stroke:#038048;stroke-width:1.0;"></ellipse><text fill="#000000" font-family="sans-serif" font-size="14" lengthAdjust="spacing" textLength="339" x="1339.5" y="243.902">unfollowUser(follower: User, following: User): void</text><ellipse cx="1330.5" cy="256.8522" fill="#84BE84" rx="3" ry="3" style="stroke:#038048;stroke-width:1.0;"></ellipse><text fill="#000000" font-family="sans-serif" font-size="14" lengthAdjust="spacing" textLength="258" x="1339.5" y="260.1989">getFollowers(user: User): List&lt;User&gt;</text><ellipse cx="1330.5" cy="273.1491" fill="#84BE84" rx="3" ry="3" style="stroke:#038048;stroke-width:1.0;"></ellipse><text fill="#000000" font-family="sans-serif" font-size="14" lengthAdjust="spacing" textLength="257" x="1339.5" y="276.4957">getFollowing(user: User): List&lt;User&gt;</text></g><!--class NotificationService--><g id="elem_NotificationService"><rect codeline="59" fill="#F1F1F1" height="64.2969" id="NotificationService" rx="2.5" ry="2.5" style="stroke:#181818;stroke-width:0.5;" width="377" x="21.5" y="195.06"></rect><ellipse cx="142.75" cy="211.06" fill="#ADD1B2" rx="11" ry="11" style="stroke:#181818;stroke-width:1.0;"></ellipse><path d="M145.7188,216.7006 Q145.1406,216.9975 144.5,217.1381 Q143.8594,217.2944 143.1563,217.2944 Q140.6563,217.2944 139.3281,215.6538 Q138.0156,213.9975 138.0156,210.8725 Q138.0156,207.7475 139.3281,206.0913 Q140.6563,204.435 143.1563,204.435 Q143.8594,204.435 144.5,204.5913 Q145.1563,204.7475 145.7188,205.0444 L145.7188,207.7631 Q145.0938,207.185 144.5,206.9194 Q143.9063,206.6381 143.2813,206.6381 Q141.9375,206.6381 141.25,207.7163 Q140.5625,208.7788 140.5625,210.8725 Q140.5625,212.9663 141.25,214.0444 Q141.9375,215.1069 143.2813,215.1069 Q143.9063,215.1069 144.5,214.8413 Q145.0938,214.56 145.7188,213.9819 L145.7188,216.7006 Z " fill="#000000"></path><text fill="#000000" font-family="sans-serif" font-size="14" lengthAdjust="spacing" textLength="126" x="163.25" y="215.9067">NotificationService</text><line style="stroke:#181818;stroke-width:0.5;" x1="22.5" x2="397.5" y1="227.06" y2="227.06"></line><line style="stroke:#181818;stroke-width:0.5;" x1="22.5" x2="397.5" y1="235.06" y2="235.06"></line><ellipse cx="32.5" cy="248.7084" fill="#84BE84" rx="3" ry="3" style="stroke:#038048;stroke-width:1.0;"></ellipse><text fill="#000000" font-family="sans-serif" font-size="14" lengthAdjust="spacing" textLength="351" x="41.5" y="252.0551">sendNotification(user: User, message: String): void</text></g><!--link Twitter to User--><g id="link_Twitter_User"><path codeline="63" d="M773.45,227.21 C782.78,227.21 792.11,227.21 801.44,227.21 " fill="none" id="Twitter-to-User" style="stroke:#181818;stroke-width:1.0;"></path><polygon fill="#181818" points="806.25,227.21,797.25,223.21,801.25,227.21,797.25,231.21,806.25,227.21" style="stroke:#181818;stroke-width:1.0;"></polygon></g><!--link User to Tweet--><g id="link_User_Tweet"><path codeline="64" d="M1182.7,105.07 C1223.86,75.47 1271.05,47.92 1319.5,32.43 C1367.02,17.24 2174.24,7.58 2217.5,32.43 C2257.46,55.38 2282.73,99.8 2298.28,140.43 " fill="none" id="User-to-Tweet" style="stroke:#181818;stroke-width:1.0;"></path><polygon fill="#181818" points="2300.31,144.88,2300.8952,135.0485,2298.5544,140.1984,2293.4046,137.8575,2300.31,144.88" style="stroke:#181818;stroke-width:1.0;"></polygon></g><!--link User to UserService--><g id="link_User_UserService"><path codeline="65" d="M1182.7,105.07 C1223.86,75.47 1271.05,47.92 1319.5,32.43 C1396.76,7.73 1607.04,8.38 1684.5,32.43 C1764.1,57.14 1841.18,112.8 1894.82,158.33 " fill="none" id="User-to-UserService" style="stroke:#181818;stroke-width:1.0;"></path><polygon fill="#181818" points="1898.29,162.14,1894.0241,153.2629,1894.4807,158.9013,1888.8423,159.3579,1898.29,162.14" style="stroke:#181818;stroke-width:1.0;"></polygon></g><!--link Tweet to TweetService--><g id="link_Tweet_TweetService"><path codeline="66" d="M2390.3,227.21 C2399.79,227.21 2409.28,227.21 2418.78,227.21 " fill="none" id="Tweet-to-TweetService" style="stroke:#181818;stroke-width:1.0;"></path><polygon fill="#181818" points="2423.69,227.21,2414.69,223.21,2418.69,227.21,2414.69,231.21,2423.69,227.21" style="stroke:#181818;stroke-width:1.0;"></polygon></g><!--link User to FollowService--><g id="link_User_FollowService"><path codeline="67" d="M1284.69,318.34 C1325.93,316.79 1367.18,306.28 1408.42,286.8 " fill="none" id="User-to-FollowService" style="stroke:#181818;stroke-width:1.0;"></path><polygon fill="#181818" points="1412.72,284.25,1402.876,284.5588,1408.2169,286.4229,1406.3527,291.7638,1412.72,284.25" style="stroke:#181818;stroke-width:1.0;"></polygon></g><!--link FollowService to User--><g id="link_FollowService_User"><path codeline="68" d="M1413.72,170.17 C1372.64,150 1331.56,138.73 1290.48,136.35 " fill="none" id="FollowService-to-User" style="stroke:#181818;stroke-width:1.0;"></path><polygon fill="#181818" points="1285.69,136.07,1294.4853,140.5019,1290.6841,136.3126,1294.8735,132.5113,1285.69,136.07" style="stroke:#181818;stroke-width:1.0;"></polygon></g><!--reverse link NotificationService to User--><g id="link_NotificationService_User"><path codeline="69" d="M237.73,190.42 C275.8,143.32 349.22,64 433.5,32.43 C504.05,6 700.74,9.49 772.5,32.43 C820.95,47.92 868.14,75.47 909.3,105.07 " fill="none" id="NotificationService-backto-User" style="stroke:#181818;stroke-width:1.0;"></path><polygon fill="#181818" points="234.15,193.88,242.8937,189.3471,237.2717,189.9743,236.6445,184.3523,234.15,193.88" style="stroke:#181818;stroke-width:1.0;"></polygon></g><!--SRC=[dLLPQiCm4FtFAURJ8Su5J0Yqb4AXb4AI0wZMn1LnB2CfIKF9tQl5iYKxQtz2z6RHctapSato3IaGbWUc58gdkeRV4K1U4YazQ160gJeWAfd1EvDgjZI7kJFi90gFh_H_1qy8fTOhiO4PsCCuWprdr7bGB57X3IU9HEJV5fV91ey7BcW62oLOLOo7R2PhNfRyO7WaXbW6vc-KSLVTy3cDsXuOWs-0SQt85ltj3gsrMyZ9eRWbh8oXY_rpRCxri37f5CFs8cNgK_0rAp7fCqkXpog5Y57KZrmWkId3NLeLg1gXpYcZhQ- -rDOXgAYrQu83Uw29pUb5ORf4LgccnVYZugPJNLa6B_gtqz39tJ7MGUQw8Cp09iR0RQm1xSYCsmIzGLcWsBCS6seJWOMk04KxPuzArD4iUS6gE_Fem2_EIoHL6yjtBVD8B0C-7zzeqdHnt6kDiw-QAmTtdss4LQVNYMZ20erIYDRFElnZt7eb16aUUZo28jmSzge8NWs_ievw2i6UNdzk7WcCzYLgrDNDkUmP5FZ15Lkpd2Z6grwP4YiQceE4AMnHIlt16BuZDhV_OapdVZ3i-wcFNXD_3jR5nfcDzcuTxhqZEJGUozFTTgwgsTHPJty0]--></g></svg>