<!--?xml version="1.0" encoding="us-ascii" standalone="no"?--><svg xmlns="http://www.w3.org/2000/svg" xmlns:xlink="http://www.w3.org/1999/xlink" contentstyletype="text/css" height="582px" preserveAspectRatio="none" style="width:842px;height:582px;background:#FFFFFF;" version="1.1" viewBox="0 0 842 582" width="842px" zoomAndPan="magnify"><defs></defs><g><!--class User--><g id="elem_User"><rect codeline="4" fill="#F1F1F1" height="243.5625" id="User" rx="2.5" ry="2.5" style="stroke:#181818;stroke-width:0.5;" width="141" x="7" y="286.66"></rect><ellipse cx="57.25" cy="302.66" fill="#ADD1B2" rx="11" ry="11" style="stroke:#181818;stroke-width:1.0;"></ellipse><path d="M60.2188,308.3006 Q59.6406,308.5975 59,308.7381 Q58.3594,308.8944 57.6563,308.8944 Q55.1563,308.8944 53.8281,307.2537 Q52.5156,305.5975 52.5156,302.4725 Q52.5156,299.3475 53.8281,297.6912 Q55.1563,296.035 57.6563,296.035 Q58.3594,296.035 59,296.1912 Q59.6563,296.3475 60.2188,296.6444 L60.2188,299.3631 Q59.5938,298.785 59,298.5194 Q58.4063,298.2381 57.7813,298.2381 Q56.4375,298.2381 55.75,299.3162 Q55.0625,300.3787 55.0625,302.4725 Q55.0625,304.5662 55.75,305.6444 Q56.4375,306.7069 57.7813,306.7069 Q58.4063,306.7069 59,306.4412 Q59.5938,306.16 60.2188,305.5819 L60.2188,308.3006 Z " fill="#000000"></path><text fill="#000000" font-family="sans-serif" font-size="14" lengthAdjust="spacing" textLength="32" x="77.75" y="307.5067">User</text><line style="stroke:#181818;stroke-width:0.5;" x1="8" x2="147" y1="318.66" y2="318.66"></line><rect fill="none" height="6" style="stroke:#C82930;stroke-width:1.0;" width="6" x="15" y="329.3084"></rect><text fill="#000000" font-family="sans-serif" font-size="14" lengthAdjust="spacing" textLength="38" x="27" y="335.6551">id: int</text><rect fill="none" height="6" style="stroke:#C82930;stroke-width:1.0;" width="6" x="15" y="345.6053"></rect><text fill="#000000" font-family="sans-serif" font-size="14" lengthAdjust="spacing" textLength="87" x="27" y="351.952">name: string</text><rect fill="none" height="6" style="stroke:#C82930;stroke-width:1.0;" width="6" x="15" y="361.9022"></rect><text fill="#000000" font-family="sans-serif" font-size="14" lengthAdjust="spacing" textLength="84" x="27" y="368.2489">email: string</text><rect fill="none" height="6" style="stroke:#C82930;stroke-width:1.0;" width="6" x="15" y="378.1991"></rect><text fill="#000000" font-family="sans-serif" font-size="14" lengthAdjust="spacing" textLength="115" x="27" y="384.5457">password: string</text><line style="stroke:#181818;stroke-width:0.5;" x1="8" x2="147" y1="391.8475" y2="391.8475"></line><ellipse cx="18" cy="405.4959" fill="#84BE84" rx="3" ry="3" style="stroke:#038048;stroke-width:1.0;"></ellipse><text fill="#000000" font-family="sans-serif" font-size="14" lengthAdjust="spacing" textLength="63" x="27" y="408.8426">register()</text><ellipse cx="18" cy="421.7928" fill="#84BE84" rx="3" ry="3" style="stroke:#038048;stroke-width:1.0;"></ellipse><text fill="#000000" font-family="sans-serif" font-size="14" lengthAdjust="spacing" textLength="43" x="27" y="425.1395">login()</text><ellipse cx="18" cy="438.0897" fill="#84BE84" rx="3" ry="3" style="stroke:#038048;stroke-width:1.0;"></ellipse><text fill="#000000" font-family="sans-serif" font-size="14" lengthAdjust="spacing" textLength="85" x="27" y="441.4364">createPost()</text><ellipse cx="18" cy="454.3866" fill="#84BE84" rx="3" ry="3" style="stroke:#038048;stroke-width:1.0;"></ellipse><text fill="#000000" font-family="sans-serif" font-size="14" lengthAdjust="spacing" textLength="67" x="27" y="457.7332">editPost()</text><ellipse cx="18" cy="470.6834" fill="#84BE84" rx="3" ry="3" style="stroke:#038048;stroke-width:1.0;"></ellipse><text fill="#000000" font-family="sans-serif" font-size="14" lengthAdjust="spacing" textLength="85" x="27" y="474.0301">deletePost()</text><ellipse cx="18" cy="486.9803" fill="#84BE84" rx="3" ry="3" style="stroke:#038048;stroke-width:1.0;"></ellipse><text fill="#000000" font-family="sans-serif" font-size="14" lengthAdjust="spacing" textLength="64" x="27" y="490.327">likePost()</text><ellipse cx="18" cy="503.2772" fill="#84BE84" rx="3" ry="3" style="stroke:#038048;stroke-width:1.0;"></ellipse><text fill="#000000" font-family="sans-serif" font-size="14" lengthAdjust="spacing" textLength="49" x="27" y="506.6239">follow()</text><ellipse cx="18" cy="519.5741" fill="#84BE84" rx="3" ry="3" style="stroke:#038048;stroke-width:1.0;"></ellipse><text fill="#000000" font-family="sans-serif" font-size="14" lengthAdjust="spacing" textLength="67" x="27" y="522.9207">unfollow()</text></g><!--class Post--><g id="elem_Post"><rect codeline="19" fill="#F1F1F1" height="178.375" id="Post" rx="2.5" ry="2.5" style="stroke:#181818;stroke-width:0.5;" width="169" x="208" y="77.26"></rect><ellipse cx="272.75" cy="93.26" fill="#ADD1B2" rx="11" ry="11" style="stroke:#181818;stroke-width:1.0;"></ellipse><path d="M275.7188,98.9006 Q275.1406,99.1975 274.5,99.3381 Q273.8594,99.4944 273.1563,99.4944 Q270.6563,99.4944 269.3281,97.8537 Q268.0156,96.1975 268.0156,93.0725 Q268.0156,89.9475 269.3281,88.2912 Q270.6563,86.635 273.1563,86.635 Q273.8594,86.635 274.5,86.7912 Q275.1563,86.9475 275.7188,87.2444 L275.7188,89.9631 Q275.0938,89.385 274.5,89.1194 Q273.9063,88.8381 273.2813,88.8381 Q271.9375,88.8381 271.25,89.9162 Q270.5625,90.9787 270.5625,93.0725 Q270.5625,95.1662 271.25,96.2444 Q271.9375,97.3069 273.2813,97.3069 Q273.9063,97.3069 274.5,97.0412 Q275.0938,96.76 275.7188,96.1819 L275.7188,98.9006 Z " fill="#000000"></path><text fill="#000000" font-family="sans-serif" font-size="14" lengthAdjust="spacing" textLength="31" x="293.25" y="98.1067">Post</text><line style="stroke:#181818;stroke-width:0.5;" x1="209" x2="376" y1="109.26" y2="109.26"></line><rect fill="none" height="6" style="stroke:#C82930;stroke-width:1.0;" width="6" x="216" y="119.9084"></rect><text fill="#000000" font-family="sans-serif" font-size="14" lengthAdjust="spacing" textLength="38" x="228" y="126.2551">id: int</text><rect fill="none" height="6" style="stroke:#C82930;stroke-width:1.0;" width="6" x="216" y="136.2053"></rect><text fill="#000000" font-family="sans-serif" font-size="14" lengthAdjust="spacing" textLength="102" x="228" y="142.552">content: string</text><rect fill="none" height="6" style="stroke:#C82930;stroke-width:1.0;" width="6" x="216" y="152.5022"></rect><text fill="#000000" font-family="sans-serif" font-size="14" lengthAdjust="spacing" textLength="143" x="228" y="158.8489">timestamp: datetime</text><rect fill="none" height="6" style="stroke:#C82930;stroke-width:1.0;" width="6" x="216" y="168.7991"></rect><text fill="#000000" font-family="sans-serif" font-size="14" lengthAdjust="spacing" textLength="57" x="228" y="175.1457">likes: int</text><line style="stroke:#181818;stroke-width:0.5;" x1="209" x2="376" y1="182.4475" y2="182.4475"></line><ellipse cx="219" cy="196.0959" fill="#84BE84" rx="3" ry="3" style="stroke:#038048;stroke-width:1.0;"></ellipse><text fill="#000000" font-family="sans-serif" font-size="14" lengthAdjust="spacing" textLength="54" x="228" y="199.4426">create()</text><ellipse cx="219" cy="212.3928" fill="#84BE84" rx="3" ry="3" style="stroke:#038048;stroke-width:1.0;"></ellipse><text fill="#000000" font-family="sans-serif" font-size="14" lengthAdjust="spacing" textLength="36" x="228" y="215.7395">edit()</text><ellipse cx="219" cy="228.6897" fill="#84BE84" rx="3" ry="3" style="stroke:#038048;stroke-width:1.0;"></ellipse><text fill="#000000" font-family="sans-serif" font-size="14" lengthAdjust="spacing" textLength="54" x="228" y="232.0364">delete()</text><ellipse cx="219" cy="244.9866" fill="#84BE84" rx="3" ry="3" style="stroke:#038048;stroke-width:1.0;"></ellipse><text fill="#000000" font-family="sans-serif" font-size="14" lengthAdjust="spacing" textLength="33" x="228" y="248.3332">like()</text></g><!--class Hashtag--><g id="elem_Hashtag"><rect codeline="30" fill="#F1F1F1" height="96.8906" id="Hashtag" rx="2.5" ry="2.5" style="stroke:#181818;stroke-width:0.5;" width="113" x="465" y="7"></rect><ellipse cx="490.8" cy="23" fill="#ADD1B2" rx="11" ry="11" style="stroke:#181818;stroke-width:1.0;"></ellipse><path d="M493.7688,28.6406 Q493.1906,28.9375 492.55,29.0781 Q491.9094,29.2344 491.2063,29.2344 Q488.7063,29.2344 487.3781,27.5938 Q486.0656,25.9375 486.0656,22.8125 Q486.0656,19.6875 487.3781,18.0313 Q488.7063,16.375 491.2063,16.375 Q491.9094,16.375 492.55,16.5313 Q493.2063,16.6875 493.7688,16.9844 L493.7688,19.7031 Q493.1438,19.125 492.55,18.8594 Q491.9563,18.5781 491.3313,18.5781 Q489.9875,18.5781 489.3,19.6563 Q488.6125,20.7188 488.6125,22.8125 Q488.6125,24.9063 489.3,25.9844 Q489.9875,27.0469 491.3313,27.0469 Q491.9563,27.0469 492.55,26.7813 Q493.1438,26.5 493.7688,25.9219 L493.7688,28.6406 Z " fill="#000000"></path><text fill="#000000" font-family="sans-serif" font-size="14" lengthAdjust="spacing" textLength="57" x="507.2" y="27.8467">Hashtag</text><line style="stroke:#181818;stroke-width:0.5;" x1="466" x2="577" y1="39" y2="39"></line><rect fill="none" height="6" style="stroke:#C82930;stroke-width:1.0;" width="6" x="473" y="49.6484"></rect><text fill="#000000" font-family="sans-serif" font-size="14" lengthAdjust="spacing" textLength="87" x="485" y="55.9951">name: string</text><rect fill="none" height="6" style="stroke:#C82930;stroke-width:1.0;" width="6" x="473" y="65.9453"></rect><text fill="#000000" font-family="sans-serif" font-size="14" lengthAdjust="spacing" textLength="66" x="485" y="72.292">count: int</text><line style="stroke:#181818;stroke-width:0.5;" x1="466" x2="577" y1="79.5938" y2="79.5938"></line><ellipse cx="476" cy="93.2422" fill="#84BE84" rx="3" ry="3" style="stroke:#038048;stroke-width:1.0;"></ellipse><text fill="#000000" font-family="sans-serif" font-size="14" lengthAdjust="spacing" textLength="57" x="485" y="96.5889">search()</text></g><!--class Comment--><g id="elem_Comment"><rect codeline="36" fill="#F1F1F1" height="145.7813" id="Comment" rx="2.5" ry="2.5" style="stroke:#181818;stroke-width:0.5;" width="169" x="437" y="209.56"></rect><ellipse cx="483.25" cy="225.56" fill="#ADD1B2" rx="11" ry="11" style="stroke:#181818;stroke-width:1.0;"></ellipse><path d="M486.2188,231.2006 Q485.6406,231.4975 485,231.6381 Q484.3594,231.7944 483.6563,231.7944 Q481.1563,231.7944 479.8281,230.1537 Q478.5156,228.4975 478.5156,225.3725 Q478.5156,222.2475 479.8281,220.5912 Q481.1563,218.935 483.6563,218.935 Q484.3594,218.935 485,219.0912 Q485.6563,219.2475 486.2188,219.5444 L486.2188,222.2631 Q485.5938,221.685 485,221.4194 Q484.4063,221.1381 483.7813,221.1381 Q482.4375,221.1381 481.75,222.2162 Q481.0625,223.2787 481.0625,225.3725 Q481.0625,227.4662 481.75,228.5444 Q482.4375,229.6069 483.7813,229.6069 Q484.4063,229.6069 485,229.3412 Q485.5938,229.06 486.2188,228.4819 L486.2188,231.2006 Z " fill="#000000"></path><text fill="#000000" font-family="sans-serif" font-size="14" lengthAdjust="spacing" textLength="68" x="503.75" y="230.4067">Comment</text><line style="stroke:#181818;stroke-width:0.5;" x1="438" x2="605" y1="241.56" y2="241.56"></line><rect fill="none" height="6" style="stroke:#C82930;stroke-width:1.0;" width="6" x="445" y="252.2084"></rect><text fill="#000000" font-family="sans-serif" font-size="14" lengthAdjust="spacing" textLength="38" x="457" y="258.5551">id: int</text><rect fill="none" height="6" style="stroke:#C82930;stroke-width:1.0;" width="6" x="445" y="268.5053"></rect><text fill="#000000" font-family="sans-serif" font-size="14" lengthAdjust="spacing" textLength="102" x="457" y="274.852">content: string</text><rect fill="none" height="6" style="stroke:#C82930;stroke-width:1.0;" width="6" x="445" y="284.8022"></rect><text fill="#000000" font-family="sans-serif" font-size="14" lengthAdjust="spacing" textLength="143" x="457" y="291.1489">timestamp: datetime</text><line style="stroke:#181818;stroke-width:0.5;" x1="438" x2="605" y1="298.4506" y2="298.4506"></line><ellipse cx="448" cy="312.0991" fill="#84BE84" rx="3" ry="3" style="stroke:#038048;stroke-width:1.0;"></ellipse><text fill="#000000" font-family="sans-serif" font-size="14" lengthAdjust="spacing" textLength="54" x="457" y="315.4457">create()</text><ellipse cx="448" cy="328.3959" fill="#84BE84" rx="3" ry="3" style="stroke:#038048;stroke-width:1.0;"></ellipse><text fill="#000000" font-family="sans-serif" font-size="14" lengthAdjust="spacing" textLength="36" x="457" y="331.7426">edit()</text><ellipse cx="448" cy="344.6928" fill="#84BE84" rx="3" ry="3" style="stroke:#038048;stroke-width:1.0;"></ellipse><text fill="#000000" font-family="sans-serif" font-size="14" lengthAdjust="spacing" textLength="54" x="457" y="348.0395">delete()</text></g><!--class Notification--><g id="elem_Notification"><rect codeline="45" fill="#F1F1F1" height="113.1875" id="Notification" rx="2.5" ry="2.5" style="stroke:#181818;stroke-width:0.5;" width="169" x="666" y="225.85"></rect><ellipse cx="708.45" cy="241.85" fill="#ADD1B2" rx="11" ry="11" style="stroke:#181818;stroke-width:1.0;"></ellipse><path d="M711.4188,247.4906 Q710.8406,247.7875 710.2,247.9281 Q709.5594,248.0844 708.8563,248.0844 Q706.3563,248.0844 705.0281,246.4437 Q703.7156,244.7875 703.7156,241.6625 Q703.7156,238.5375 705.0281,236.8812 Q706.3563,235.225 708.8563,235.225 Q709.5594,235.225 710.2,235.3812 Q710.8563,235.5375 711.4188,235.8344 L711.4188,238.5531 Q710.7938,237.975 710.2,237.7094 Q709.6063,237.4281 708.9813,237.4281 Q707.6375,237.4281 706.95,238.5062 Q706.2625,239.5687 706.2625,241.6625 Q706.2625,243.7562 706.95,244.8344 Q707.6375,245.8969 708.9813,245.8969 Q709.6063,245.8969 710.2,245.6312 Q710.7938,245.35 711.4188,244.7719 L711.4188,247.4906 Z " fill="#000000"></path><text fill="#000000" font-family="sans-serif" font-size="14" lengthAdjust="spacing" textLength="76" x="728.55" y="246.6967">Notification</text><line style="stroke:#181818;stroke-width:0.5;" x1="667" x2="834" y1="257.85" y2="257.85"></line><rect fill="none" height="6" style="stroke:#C82930;stroke-width:1.0;" width="6" x="674" y="268.4984"></rect><text fill="#000000" font-family="sans-serif" font-size="14" lengthAdjust="spacing" textLength="38" x="686" y="274.8451">id: int</text><rect fill="none" height="6" style="stroke:#C82930;stroke-width:1.0;" width="6" x="674" y="284.7953"></rect><text fill="#000000" font-family="sans-serif" font-size="14" lengthAdjust="spacing" textLength="102" x="686" y="291.142">content: string</text><rect fill="none" height="6" style="stroke:#C82930;stroke-width:1.0;" width="6" x="674" y="301.0922"></rect><text fill="#000000" font-family="sans-serif" font-size="14" lengthAdjust="spacing" textLength="143" x="686" y="307.4389">timestamp: datetime</text><line style="stroke:#181818;stroke-width:0.5;" x1="667" x2="834" y1="314.7406" y2="314.7406"></line><ellipse cx="677" cy="328.3891" fill="#84BE84" rx="3" ry="3" style="stroke:#038048;stroke-width:1.0;"></ellipse><text fill="#000000" font-family="sans-serif" font-size="14" lengthAdjust="spacing" textLength="45" x="686" y="331.7357">send()</text></g><!--class Message--><g id="elem_Message"><rect codeline="52" fill="#F1F1F1" height="113.1875" id="Message" rx="2.5" ry="2.5" style="stroke:#181818;stroke-width:0.5;" width="169" x="208" y="461.85"></rect><ellipse cx="256.75" cy="477.85" fill="#ADD1B2" rx="11" ry="11" style="stroke:#181818;stroke-width:1.0;"></ellipse><path d="M259.7188,483.4906 Q259.1406,483.7875 258.5,483.9281 Q257.8594,484.0844 257.1563,484.0844 Q254.6563,484.0844 253.3281,482.4437 Q252.0156,480.7875 252.0156,477.6625 Q252.0156,474.5375 253.3281,472.8812 Q254.6563,471.225 257.1563,471.225 Q257.8594,471.225 258.5,471.3812 Q259.1563,471.5375 259.7188,471.8344 L259.7188,474.5531 Q259.0938,473.975 258.5,473.7094 Q257.9063,473.4281 257.2813,473.4281 Q255.9375,473.4281 255.25,474.5062 Q254.5625,475.5687 254.5625,477.6625 Q254.5625,479.7562 255.25,480.8344 Q255.9375,481.8969 257.2813,481.8969 Q257.9063,481.8969 258.5,481.6312 Q259.0938,481.35 259.7188,480.7719 L259.7188,483.4906 Z " fill="#000000"></path><text fill="#000000" font-family="sans-serif" font-size="14" lengthAdjust="spacing" textLength="63" x="277.25" y="482.6967">Message</text><line style="stroke:#181818;stroke-width:0.5;" x1="209" x2="376" y1="493.85" y2="493.85"></line><rect fill="none" height="6" style="stroke:#C82930;stroke-width:1.0;" width="6" x="216" y="504.4984"></rect><text fill="#000000" font-family="sans-serif" font-size="14" lengthAdjust="spacing" textLength="38" x="228" y="510.8451">id: int</text><rect fill="none" height="6" style="stroke:#C82930;stroke-width:1.0;" width="6" x="216" y="520.7953"></rect><text fill="#000000" font-family="sans-serif" font-size="14" lengthAdjust="spacing" textLength="102" x="228" y="527.142">content: string</text><rect fill="none" height="6" style="stroke:#C82930;stroke-width:1.0;" width="6" x="216" y="537.0922"></rect><text fill="#000000" font-family="sans-serif" font-size="14" lengthAdjust="spacing" textLength="143" x="228" y="543.4389">timestamp: datetime</text><line style="stroke:#181818;stroke-width:0.5;" x1="209" x2="376" y1="550.7406" y2="550.7406"></line><ellipse cx="219" cy="564.3891" fill="#84BE84" rx="3" ry="3" style="stroke:#038048;stroke-width:1.0;"></ellipse><text fill="#000000" font-family="sans-serif" font-size="14" lengthAdjust="spacing" textLength="45" x="228" y="567.7357">send()</text></g><!--link User to Post--><g id="link_User_Post"><path codeline="59" d="M148.24,329.21 C167.66,307.15 188.94,282.97 209.01,260.17 " fill="none" id="User-to-Post" style="stroke:#181818;stroke-width:1.0;"></path><polygon fill="#181818" points="212.74,256.92,203.7876,261.0254,209.4333,260.6704,209.7883,266.3161,212.74,256.92" style="stroke:#181818;stroke-width:1.0;"></polygon></g><!--link User to Comment--><g id="link_User_Comment"><path codeline="60" d="M148.05,388.62 C224.53,366.82 347.64,331.72 431.2,307.9 " fill="none" id="User-to-Comment" style="stroke:#181818;stroke-width:1.0;"></path><polygon fill="#181818" points="435.65,306.35,425.8974,304.9764,430.8424,307.7236,428.0952,312.6686,435.65,306.35" style="stroke:#181818;stroke-width:1.0;"></polygon></g><!--link User to Notification--><g id="link_User_Notification"><path codeline="61" d="M148.39,414.29 C251.36,420.55 448.64,423.57 606,372.45 C627.66,365.41 649.34,354.39 669.06,342.45 " fill="none" id="User-to-Notification" style="stroke:#181818;stroke-width:1.0;"></path><polygon fill="#181818" points="673.03,339.4,663.2675,340.7011,668.7693,342.0165,667.4539,347.5183,673.03,339.4" style="stroke:#181818;stroke-width:1.0;"></polygon></g><!--link User to Message--><g id="link_User_Message"><path codeline="62" d="M148.24,456.51 C165.66,466.2 184.56,476.14 202.76,485.21 " fill="none" id="User-to-Message" style="stroke:#181818;stroke-width:1.0;"></path><polygon fill="#181818" points="206.87,487.74,200.5703,480.1695,202.3865,485.5268,197.0291,487.3431,206.87,487.74" style="stroke:#181818;stroke-width:1.0;"></polygon></g><!--link Message to User--><g id="link_Message_User"><path codeline="67" d="M207.87,462.04 C189.98,452.35 171.19,442.73 153.65,434.29 " fill="none" id="Message-to-User" style="stroke:#181818;stroke-width:1.0;"></path><polygon fill="#181818" points="149.24,431.71,155.6359,439.1995,153.7514,433.8658,159.0851,431.9813,149.24,431.71" style="stroke:#181818;stroke-width:1.0;"></polygon></g><!--link Post to Hashtag--><g id="link_Post_Hashtag"><path codeline="63" d="M377.38,125.43 C404.5,112.17 434.05,97.72 459.21,85.42 " fill="none" id="Post-to-Hashtag" style="stroke:#181818;stroke-width:1.0;"></path><polygon fill="#181818" points="463.51,82.82,453.6682,83.1917,459.0208,85.0217,457.1909,90.3744,463.51,82.82" style="stroke:#181818;stroke-width:1.0;"></polygon></g><!--link Post to Comment--><g id="link_Post_Comment"><path codeline="64" d="M377.38,209.31 C395.04,218.34 413.74,227.89 431.58,237.01 " fill="none" id="Post-to-Comment" style="stroke:#181818;stroke-width:1.0;"></path><polygon fill="#181818" points="435.58,239.56,429.3774,231.9096,431.1251,237.2897,425.745,239.0374,435.58,239.56" style="stroke:#181818;stroke-width:1.0;"></polygon></g><!--link Post to Notification--><g id="link_Post_Notification"><path codeline="65" d="M377.23,162.8 C441.42,162.5 531.37,167.58 606,192.45 C627.48,199.6 649.01,210.59 668.63,222.46 " fill="none" id="Post-to-Notification" style="stroke:#181818;stroke-width:1.0;"></path><polygon fill="#181818" points="672.57,225.5,666.9939,217.3817,668.3093,222.8835,662.8075,224.1989,672.57,225.5" style="stroke:#181818;stroke-width:1.0;"></polygon></g><!--link Comment to Notification--><g id="link_Comment_Notification"><path codeline="66" d="M606.38,282.45 C623.74,282.45 642.1,282.45 659.66,282.45 " fill="none" id="Comment-to-Notification" style="stroke:#181818;stroke-width:1.0;"></path><polygon fill="#181818" points="664.58,282.45,655.58,278.45,659.58,282.45,655.58,286.45,664.58,282.45" style="stroke:#181818;stroke-width:1.0;"></polygon></g><!--SRC=[hP8xJWGn38RxEKLA4DeBJ453GmD2GXp0IZnPQ_COnLwjLeYxCvx79h054j3v_vtONs877CH8DeNyNeoZWbOefuuFb4Oe4Cq8zW0UN-KSq6Ywwsm0PlF6MCnxPyoEN6yeYOO98lQ6fL3ogZ42XTOOfwkdN5pZtHNqn8BbvbPLo9xI4jg28FYIMHQDZgGgXm7RRA13euOSGZujyJ5TrCU6hoUly6rEWabQOA68B137thW9HgNQseotUojeXMm1ArpR_X5uB-0NWk-_PlDH8TRYZ53ilhtya6ESC7-F_nFmfTDp5Xh8WYx57zen9jUMVKBcQQd-fUAyXxlT_JpHgjO_gaRxbEgk9Dsy3cgiWwd6LkXYV2cqZU8giJrH4zhj4m00]--></g></svg>