<!--?xml version="1.0" encoding="us-ascii" standalone="no"?--><svg xmlns="http://www.w3.org/2000/svg" xmlns:xlink="http://www.w3.org/1999/xlink" contentstyletype="text/css" height="444px" preserveAspectRatio="none" style="width:268px;height:444px;background:#FFFFFF;" version="1.1" viewBox="0 0 268 444" width="268px" zoomAndPan="magnify"><defs></defs><g><line style="stroke:#181818;stroke-width:0.5;stroke-dasharray:5.0,5.0;" x1="24" x2="24" y1="81.2969" y2="363.4922"></line><line style="stroke:#181818;stroke-width:0.5;stroke-dasharray:5.0,5.0;" x1="114" x2="114" y1="81.2969" y2="363.4922"></line><line style="stroke:#181818;stroke-width:0.5;stroke-dasharray:5.0,5.0;" x1="239.5" x2="239.5" y1="81.2969" y2="363.4922"></line><text fill="#000000" font-family="sans-serif" font-size="14" lengthAdjust="spacing" textLength="32" x="5" y="77.9951">User</text><ellipse cx="24" cy="13.5" fill="#E2E2F0" rx="8" ry="8" style="stroke:#181818;stroke-width:0.5;"></ellipse><path d="M24,21.5 L24,48.5 M11,29.5 L37,29.5 M24,48.5 L11,63.5 M24,48.5 L37,63.5 " fill="none" style="stroke:#181818;stroke-width:0.5;"></path><text fill="#000000" font-family="sans-serif" font-size="14" lengthAdjust="spacing" textLength="32" x="5" y="375.4873">User</text><ellipse cx="24" cy="387.2891" fill="#E2E2F0" rx="8" ry="8" style="stroke:#181818;stroke-width:0.5;"></ellipse><path d="M24,395.2891 L24,422.2891 M11,403.2891 L37,403.2891 M24,422.2891 L11,437.2891 M24,422.2891 L37,437.2891 " fill="none" style="stroke:#181818;stroke-width:0.5;"></path><text fill="#000000" font-family="sans-serif" font-size="14" lengthAdjust="spacing" textLength="117" x="53" y="77.9951">Twitter Database</text><path d="M96.5,29 C96.5,19 114.5,19 114.5,19 C114.5,19 132.5,19 132.5,29 L132.5,55 C132.5,65 114.5,65 114.5,65 C114.5,65 96.5,65 96.5,55 L96.5,29 " fill="#E2E2F0" style="stroke:#181818;stroke-width:1.5;"></path><path d="M96.5,29 C96.5,39 114.5,39 114.5,39 C114.5,39 132.5,39 132.5,29 " fill="none" style="stroke:#181818;stroke-width:1.5;"></path><text fill="#000000" font-family="sans-serif" font-size="14" lengthAdjust="spacing" textLength="117" x="53" y="375.4873">Twitter Database</text><path d="M96.5,388.7891 C96.5,378.7891 114.5,378.7891 114.5,378.7891 C114.5,378.7891 132.5,378.7891 132.5,388.7891 L132.5,414.7891 C132.5,424.7891 114.5,424.7891 114.5,424.7891 C114.5,424.7891 96.5,424.7891 96.5,414.7891 L96.5,388.7891 " fill="#E2E2F0" style="stroke:#181818;stroke-width:1.5;"></path><path d="M96.5,388.7891 C96.5,398.7891 114.5,398.7891 114.5,398.7891 C114.5,398.7891 132.5,398.7891 132.5,388.7891 " fill="none" style="stroke:#181818;stroke-width:1.5;"></path><rect fill="#E2E2F0" height="30.2969" rx="2.5" ry="2.5" style="stroke:#181818;stroke-width:0.5;" width="46" x="216.5" y="50"></rect><text fill="#000000" font-family="sans-serif" font-size="14" lengthAdjust="spacing" textLength="32" x="223.5" y="69.9951">User</text><rect fill="#E2E2F0" height="30.2969" rx="2.5" ry="2.5" style="stroke:#181818;stroke-width:0.5;" width="46" x="216.5" y="362.4922"></rect><text fill="#000000" font-family="sans-serif" font-size="14" lengthAdjust="spacing" textLength="32" x="223.5" y="382.4873">User</text><polygon fill="#181818" points="125.5,108.4297,115.5,112.4297,125.5,116.4297,121.5,112.4297" style="stroke:#181818;stroke-width:1.0;"></polygon><line style="stroke:#181818;stroke-width:1.0;" x1="119.5" x2="238.5" y1="112.4297" y2="112.4297"></line><text fill="#000000" font-family="sans-serif" font-size="13" lengthAdjust="spacing" textLength="34" x="131.5" y="107.3638">Login</text><polygon fill="#181818" points="125.5,137.5625,115.5,141.5625,125.5,145.5625,121.5,141.5625" style="stroke:#181818;stroke-width:1.0;"></polygon><line style="stroke:#181818;stroke-width:1.0;" x1="119.5" x2="238.5" y1="141.5625" y2="141.5625"></line><text fill="#000000" font-family="sans-serif" font-size="13" lengthAdjust="spacing" textLength="98" x="131.5" y="136.4966">Create account</text><polygon fill="#181818" points="125.5,166.6953,115.5,170.6953,125.5,174.6953,121.5,170.6953" style="stroke:#181818;stroke-width:1.0;"></polygon><line style="stroke:#181818;stroke-width:1.0;" x1="119.5" x2="238.5" y1="170.6953" y2="170.6953"></line><text fill="#000000" font-family="sans-serif" font-size="13" lengthAdjust="spacing" textLength="67" x="131.5" y="165.6294">Post tweet</text><polygon fill="#181818" points="125.5,195.8281,115.5,199.8281,125.5,203.8281,121.5,199.8281" style="stroke:#181818;stroke-width:1.0;"></polygon><line style="stroke:#181818;stroke-width:1.0;" x1="119.5" x2="238.5" y1="199.8281" y2="199.8281"></line><text fill="#000000" font-family="sans-serif" font-size="13" lengthAdjust="spacing" textLength="70" x="131.5" y="194.7622">Follow user</text><polygon fill="#181818" points="125.5,224.9609,115.5,228.9609,125.5,232.9609,121.5,228.9609" style="stroke:#181818;stroke-width:1.0;"></polygon><line style="stroke:#181818;stroke-width:1.0;" x1="119.5" x2="238.5" y1="228.9609" y2="228.9609"></line><text fill="#000000" font-family="sans-serif" font-size="13" lengthAdjust="spacing" textLength="101" x="131.5" y="223.895">Direct message</text><polygon fill="#181818" points="125.5,254.0938,115.5,258.0938,125.5,262.0938,121.5,258.0938" style="stroke:#181818;stroke-width:1.0;"></polygon><line style="stroke:#181818;stroke-width:1.0;" x1="119.5" x2="238.5" y1="258.0938" y2="258.0938"></line><text fill="#000000" font-family="sans-serif" font-size="13" lengthAdjust="spacing" textLength="45" x="131.5" y="253.0278">Search</text><polygon fill="#181818" points="125.5,283.2266,115.5,287.2266,125.5,291.2266,121.5,287.2266" style="stroke:#181818;stroke-width:1.0;"></polygon><line style="stroke:#181818;stroke-width:1.0;" x1="119.5" x2="238.5" y1="287.2266" y2="287.2266"></line><text fill="#000000" font-family="sans-serif" font-size="13" lengthAdjust="spacing" textLength="64" x="131.5" y="282.1606">Like tweet</text><polygon fill="#181818" points="125.5,312.3594,115.5,316.3594,125.5,320.3594,121.5,316.3594" style="stroke:#181818;stroke-width:1.0;"></polygon><line style="stroke:#181818;stroke-width:1.0;" x1="119.5" x2="238.5" y1="316.3594" y2="316.3594"></line><text fill="#000000" font-family="sans-serif" font-size="13" lengthAdjust="spacing" textLength="51" x="131.5" y="311.2935">Retweet</text><polygon fill="#181818" points="125.5,341.4922,115.5,345.4922,125.5,349.4922,121.5,345.4922" style="stroke:#181818;stroke-width:1.0;"></polygon><line style="stroke:#181818;stroke-width:1.0;" x1="119.5" x2="238.5" y1="345.4922" y2="345.4922"></line><text fill="#000000" font-family="sans-serif" font-size="13" lengthAdjust="spacing" textLength="64" x="131.5" y="340.4263">Comment</text><!--SRC=[RSun3i8m30NGlQUmkdC11WOQCJ4We0SmuQj4DB4Kkyhr2OWbLJVh_IzzipV9D2eoiTBOFTdumGhgxoMOLNP_wRy5T-n-tTsXdhIdiqmXjJHai87OUrcIjTb5rCWAiFAJpBCKMggrWGiPtYX2bIUqsGsS_MlrJtXZQ-2A3HmaHYJx0000]--></g></svg>